<svg xmlns="http://www.w3.org/2000/svg" width="900" height="544" viewBox="0 0 900 544">
<rect width="100%" height="100%" fill="#f7f4ee"/>
<text x="190" y="40" font-size="28" font-family="Helvetica, Arial, sans-serif" fill="#1f2937" font-weight="700">Hub Reliability Risk</text>
<text x="190" y="64" font-size="14" font-family="Helvetica, Arial, sans-serif" fill="#6b7280">Share of deliveries that were delayed or failed by hub</text>
<line x1="190.0" y1="90" x2="190.0" y2="474" stroke="#d1d5db" stroke-width="1"/>
<text x="190.0" y="498" text-anchor="middle" font-size="12" font-family="Helvetica, Arial, sans-serif" fill="#6b7280">0%</text>
<line x1="316.0" y1="90" x2="316.0" y2="474" stroke="#d1d5db" stroke-width="1"/>
<text x="316.0" y="498" text-anchor="middle" font-size="12" font-family="Helvetica, Arial, sans-serif" fill="#6b7280">8%</text>
<line x1="442.0" y1="90" x2="442.0" y2="474" stroke="#d1d5db" stroke-width="1"/>
<text x="442.0" y="498" text-anchor="middle" font-size="12" font-family="Helvetica, Arial, sans-serif" fill="#6b7280">17%</text>
<line x1="568.0" y1="90" x2="568.0" y2="474" stroke="#d1d5db" stroke-width="1"/>
<text x="568.0" y="498" text-anchor="middle" font-size="12" font-family="Helvetica, Arial, sans-serif" fill="#6b7280">25%</text>
<line x1="694.0" y1="90" x2="694.0" y2="474" stroke="#d1d5db" stroke-width="1"/>
<text x="694.0" y="498" text-anchor="middle" font-size="12" font-family="Helvetica, Arial, sans-serif" fill="#6b7280">33%</text>
<line x1="820.0" y1="90" x2="820.0" y2="474" stroke="#d1d5db" stroke-width="1"/>
<text x="820.0" y="498" text-anchor="middle" font-size="12" font-family="Helvetica, Arial, sans-serif" fill="#6b7280">42%</text>
<text x="178" y="113" text-anchor="end" font-size="14" font-family="Helvetica, Arial, sans-serif" fill="#374151">Central Core</text>
<rect x="190" y="90" width="630.0" height="34" rx="6" fill="#d97706"/>
<text x="830.0" y="113" font-size="14" font-family="Helvetica, Arial, sans-serif" fill="#111827" font-weight="700">41.7%</text>
<text x="178" y="161" text-anchor="end" font-size="14" font-family="Helvetica, Arial, sans-serif" fill="#374151">Airport Hub</text>
<rect x="190" y="138" width="610.4" height="34" rx="6" fill="#d97706"/>
<text x="810.4" y="161" font-size="14" font-family="Helvetica, Arial, sans-serif" fill="#111827" font-weight="700">40.4%</text>
<text x="178" y="209" text-anchor="end" font-size="14" font-family="Helvetica, Arial, sans-serif" fill="#374151">Midtown Relay</text>
<rect x="190" y="186" width="566.5" height="34" rx="6" fill="#d97706"/>
<text x="766.5" y="209" font-size="14" font-family="Helvetica, Arial, sans-serif" fill="#111827" font-weight="700">37.5%</text>
<text x="178" y="257" text-anchor="end" font-size="14" font-family="Helvetica, Arial, sans-serif" fill="#374151">West Gate</text>
<rect x="190" y="234" width="522.7" height="34" rx="6" fill="#d97706"/>
<text x="722.7" y="257" font-size="14" font-family="Helvetica, Arial, sans-serif" fill="#111827" font-weight="700">34.6%</text>
<text x="178" y="305" text-anchor="end" font-size="14" font-family="Helvetica, Arial, sans-serif" fill="#374151">South Link</text>
<rect x="190" y="282" width="513.7" height="34" rx="6" fill="#d97706"/>
<text x="713.7" y="305" font-size="14" font-family="Helvetica, Arial, sans-serif" fill="#111827" font-weight="700">34.0%</text>
<text x="178" y="353" text-anchor="end" font-size="14" font-family="Helvetica, Arial, sans-serif" fill="#374151">Riverside Hub</text>
<rect x="190" y="330" width="512.2" height="34" rx="6" fill="#d97706"/>
<text x="712.2" y="353" font-size="14" font-family="Helvetica, Arial, sans-serif" fill="#111827" font-weight="700">33.9%</text>
<text x="178" y="401" text-anchor="end" font-size="14" font-family="Helvetica, Arial, sans-serif" fill="#374151">North Exchange</text>
<rect x="190" y="378" width="477.4" height="34" rx="6" fill="#d97706"/>
<text x="677.4" y="401" font-size="14" font-family="Helvetica, Arial, sans-serif" fill="#111827" font-weight="700">31.6%</text>
<text x="178" y="449" text-anchor="end" font-size="14" font-family="Helvetica, Arial, sans-serif" fill="#374151">East Dock</text>
<rect x="190" y="426" width="432.1" height="34" rx="6" fill="#d97706"/>
<text x="632.1" y="449" font-size="14" font-family="Helvetica, Arial, sans-serif" fill="#111827" font-weight="700">28.6%</text>
</svg>