<svg xmlns="http://www.w3.org/2000/svg" width="900" height="540" viewBox="0 0 900 540">
<rect width="100%" height="100%" fill="#f7f4ee"/>
<text x="190" y="40" font-size="28" font-family="Helvetica, Arial, sans-serif" fill="#1f2937" font-weight="700">Orders Without Delivery Records</text>
<text x="190" y="64" font-size="14" font-family="Helvetica, Arial, sans-serif" fill="#6b7280">Potential backlog or process break between order intake and dispatch</text>
<line x1="190.0" y1="90" x2="190.0" y2="470" stroke="#d1d5db" stroke-width="1"/>
<text x="190.0" y="494" text-anchor="middle" font-size="12" font-family="Helvetica, Arial, sans-serif" fill="#6b7280">0</text>
<line x1="316.0" y1="90" x2="316.0" y2="470" stroke="#d1d5db" stroke-width="1"/>
<text x="316.0" y="494" text-anchor="middle" font-size="12" font-family="Helvetica, Arial, sans-serif" fill="#6b7280">16</text>
<line x1="442.0" y1="90" x2="442.0" y2="470" stroke="#d1d5db" stroke-width="1"/>
<text x="442.0" y="494" text-anchor="middle" font-size="12" font-family="Helvetica, Arial, sans-serif" fill="#6b7280">32</text>
<line x1="568.0" y1="90" x2="568.0" y2="470" stroke="#d1d5db" stroke-width="1"/>
<text x="568.0" y="494" text-anchor="middle" font-size="12" font-family="Helvetica, Arial, sans-serif" fill="#6b7280">47</text>
<line x1="694.0" y1="90" x2="694.0" y2="470" stroke="#d1d5db" stroke-width="1"/>
<text x="694.0" y="494" text-anchor="middle" font-size="12" font-family="Helvetica, Arial, sans-serif" fill="#6b7280">63</text>
<line x1="820.0" y1="90" x2="820.0" y2="470" stroke="#d1d5db" stroke-width="1"/>
<text x="820.0" y="494" text-anchor="middle" font-size="12" font-family="Helvetica, Arial, sans-serif" fill="#6b7280">79</text>
<text x="178" y="113" text-anchor="end" font-size="14" font-family="Helvetica, Arial, sans-serif" fill="#374151">Passenger</text>
<rect x="190" y="90" width="630.0" height="34" rx="6" fill="#d97706"/>
<text x="830.0" y="113" font-size="14" font-family="Helvetica, Arial, sans-serif" fill="#111827" font-weight="700">79.0</text>
<text x="178" y="161" text-anchor="end" font-size="14" font-family="Helvetica, Arial, sans-serif" fill="#374151">Parcel</text>
<rect x="190" y="138" width="622.0" height="34" rx="6" fill="#d97706"/>
<text x="822.0" y="161" font-size="14" font-family="Helvetica, Arial, sans-serif" fill="#111827" font-weight="700">78.0</text>
<text x="178" y="209" text-anchor="end" font-size="14" font-family="Helvetica, Arial, sans-serif" fill="#374151">Retail</text>
<rect x="190" y="186" width="582.2" height="34" rx="6" fill="#d97706"/>
<text x="782.2" y="209" font-size="14" font-family="Helvetica, Arial, sans-serif" fill="#111827" font-weight="700">73.0</text>
<text x="178" y="257" text-anchor="end" font-size="14" font-family="Helvetica, Arial, sans-serif" fill="#374151">Business</text>
<rect x="190" y="234" width="311.0" height="34" rx="6" fill="#d97706"/>
<text x="511.0" y="257" font-size="14" font-family="Helvetica, Arial, sans-serif" fill="#111827" font-weight="700">39.0</text>
<text x="178" y="305" text-anchor="end" font-size="14" font-family="Helvetica, Arial, sans-serif" fill="#374151">Medical</text>
<rect x="190" y="282" width="247.2" height="34" rx="6" fill="#d97706"/>
<text x="447.2" y="305" font-size="14" font-family="Helvetica, Arial, sans-serif" fill="#111827" font-weight="700">31.0</text>
</svg>